<svg width="180" height="180" viewBox="0 0 180 180" fill="none" xmlns="http://www.w3.org/2000/svg">
<path fill-rule="evenodd" clip-rule="evenodd" d="M175.706 42.0288C175.77 42.2647 175.802 42.5079 175.803 42.7522V80.7322C175.803 81.2197 175.674 81.6986 175.43 82.1204C175.186 82.5422 174.835 82.892 174.412 83.1346L142.549 101.488V137.865C142.549 138.855 142.023 139.769 141.165 140.267L74.6532 178.573C74.501 178.659 74.3349 178.715 74.1688 178.773C74.1065 178.794 74.0477 178.832 73.982 178.85C73.517 178.972 73.0283 178.972 72.5634 178.85C72.4872 178.829 72.418 178.787 72.3454 178.76C72.1931 178.704 72.034 178.656 71.8887 178.573L5.39092 140.267C4.96848 140.024 4.61747 139.675 4.37328 139.253C4.12909 138.831 4.00033 138.352 4 137.865V23.9249C4 23.6757 4.0346 23.4334 4.09688 23.198C4.11764 23.1184 4.16608 23.0457 4.19376 22.9661C4.24566 22.8207 4.2941 22.6719 4.37022 22.5369C4.42212 22.4469 4.49824 22.3742 4.56052 22.2911C4.6401 22.1803 4.71276 22.0661 4.80618 21.9692C4.88576 21.8896 4.98956 21.8307 5.07952 21.7615C5.17986 21.6784 5.26982 21.5884 5.384 21.5226L38.6381 2.36994C39.0591 2.12756 39.5363 2 40.0221 2C40.5078 2 40.985 2.12756 41.4061 2.36994L74.6567 21.5226H74.6636C74.7743 21.5919 74.8677 21.6784 74.9681 21.758C75.058 21.8272 75.1584 21.8896 75.2379 21.9657C75.3348 22.0661 75.404 22.1803 75.4871 22.2911C75.5459 22.3742 75.6255 22.4469 75.6739 22.5369C75.7535 22.6753 75.7985 22.8207 75.8538 22.9661C75.8815 23.0457 75.9299 23.1184 75.9507 23.2015C76.0144 23.4374 76.047 23.6806 76.0476 23.9249V95.0907L103.755 79.1296V42.7488C103.755 42.5065 103.79 42.2607 103.852 42.0288C103.876 41.9457 103.921 41.873 103.949 41.7934C104.004 41.648 104.053 41.4992 104.129 41.3642C104.181 41.2742 104.257 41.2015 104.316 41.1184C104.399 41.0076 104.468 40.8934 104.565 40.7965C104.644 40.7169 104.745 40.658 104.835 40.5888C104.939 40.5057 105.029 40.4157 105.139 40.3499L138.397 21.1972C138.818 20.9545 139.295 20.8268 139.781 20.8268C140.267 20.8268 140.744 20.9545 141.165 21.1972L174.415 40.3499C174.533 40.4192 174.623 40.5057 174.727 40.5853C174.813 40.6546 174.914 40.7169 174.993 40.793C175.09 40.8934 175.159 41.0076 175.242 41.1184C175.305 41.2015 175.381 41.2742 175.429 41.3642C175.509 41.4992 175.554 41.648 175.609 41.7934C175.64 41.873 175.685 41.9457 175.706 42.0288ZM170.26 79.1296V47.5465L158.624 54.248L142.549 63.5076V95.0907L170.263 79.1296H170.26ZM137.009 136.262V104.658L121.197 113.693L76.0441 139.475V171.376L137.009 136.262ZM9.54292 28.7192V136.262L70.5012 171.373V139.478L38.6554 121.447L38.645 121.44L38.6311 121.433C38.5239 121.371 38.4339 121.281 38.3336 121.205C38.2471 121.135 38.1467 121.08 38.0706 121.004L38.0637 120.993C37.9737 120.907 37.9115 120.8 37.8353 120.703C37.7661 120.609 37.6831 120.53 37.6277 120.433L37.6243 120.422C37.562 120.318 37.5239 120.194 37.479 120.076C37.434 119.972 37.3752 119.875 37.3475 119.765C37.3129 119.633 37.306 119.491 37.2921 119.356C37.2783 119.252 37.2506 119.148 37.2506 119.045V119.038V44.6803L21.1789 35.4172L9.54292 28.7192ZM40.0255 7.97071L12.3213 23.9249L40.0186 39.8792L67.7194 23.9215L40.0186 7.97071H40.0255ZM54.433 107.538L70.5047 98.2822V28.7192L58.8687 35.4207L42.7935 44.6803V114.243L54.433 107.538ZM139.781 26.798L112.08 42.7522L139.781 58.7065L167.478 42.7488L139.781 26.798ZM137.009 63.5076L120.934 54.248L109.298 47.5465V79.1296L125.37 88.3857L137.009 95.0907V63.5076ZM73.2692 134.68L113.9 111.474L134.21 99.878L106.53 83.9342L74.6601 102.291L45.6134 119.02L73.2692 134.68Z" fill="#6EB6D6"/>
</svg>
